<?xml version="1.0" encoding="utf-8"?>
<!-- Generator: Adobe Illustrator 16.0.0, SVG Export Plug-In . SVG Version: 6.00 Build 0)  -->
<!DOCTYPE svg PUBLIC "-//W3C//DTD SVG 1.1//EN" "http://www.w3.org/Graphics/SVG/1.1/DTD/svg11.dtd">
<svg version="1.1" id="Layer_1" xmlns="http://www.w3.org/2000/svg" xmlns:xlink="http://www.w3.org/1999/xlink" x="0px" y="0px"
	 width="1545px" height="356px" viewBox="0 0 1545 356" enable-background="new 0 0 1545 356" xml:space="preserve">
<g>
	<polygon fill="#0AA89E" points="383.157,85.474 435.08,194.411 486.75,85.474 531.546,85.474 531.546,263.644 495.403,263.644 
		495.403,143.506 448.062,245.571 421.845,245.571 374.503,143.506 374.503,263.644 338.105,263.644 338.105,85.474 	"/>
</g>
<g>
	<defs>
		<rect id="SVGID_1_" x="-725" y="-819" width="3000" height="2000"/>
	</defs>
	<clipPath id="SVGID_2_">
		<use xlink:href="#SVGID_1_"  overflow="visible"/>
	</clipPath>
	<g clip-path="url(#SVGID_2_)">
		<path fill="#0AA89E" d="M700.292,126.708v136.936H661.35v-24.18c-9.418,17.308-25.199,25.706-45.816,25.706
			c-30.289,0-49.378-20.106-49.378-52.433v-86.03h39.198v74.832c0,17.309,9.926,27.742,25.707,27.742
			c18.835-0.254,30.289-15.016,30.289-34.87v-67.704H700.292z"/>
	</g>
	<g clip-path="url(#SVGID_2_)">
		<path fill="#0AA89E" d="M782.753,153.687c-9.164,0-15.781,3.055-15.781,10.181c0,20.617,72.286,10.182,72.031,58.542
			c0,27.998-24.689,42.76-55.741,42.76c-22.144,0-43.779-6.617-59.305-19.089l12.726-26.471
			c14.254,10.944,32.58,17.054,47.597,17.054c9.928,0,17.309-3.309,17.309-10.689c0-21.891-71.014-10.183-71.014-58.289
			c0-28.252,24.18-42.76,53.959-42.76c18.835,0,38.181,5.599,53.451,15.271l-13.489,26.726
			C809.478,158.523,794.207,153.687,782.753,153.687"/>
	</g>
	<g clip-path="url(#SVGID_2_)">
		<path fill="#0AA89E" d="M904.412,263.643h-39.198V126.707h39.198V263.643z M903.903,87.765c0,11.199-7.892,19.598-19.09,19.598
			c-11.199,0-19.09-8.399-19.09-19.598c0-11.454,7.891-19.599,19.09-19.599C896.012,68.166,903.903,76.311,903.903,87.765"/>
	</g>
	<g clip-path="url(#SVGID_2_)">
		<path fill="#0AA89E" d="M1002.146,158.778c-19.09,0-32.58,14.762-32.58,36.652c0,22.143,13.49,37.16,32.58,37.16
			c13.999,0,24.943-5.345,31.815-16.034l26.979,18.324c-11.453,19.091-32.833,30.289-60.831,30.289
			c-41.489,0-69.741-27.998-69.741-69.484c0-41.998,28.252-70.25,70.25-70.25c26.216,0,47.087,10.435,59.305,28.761l-26.471,19.09
			C1026.07,164.123,1015.636,158.523,1002.146,158.778"/>
	</g>
	<g clip-path="url(#SVGID_2_)">
		<path fill="#0AA89E" d="M1233.506,195.939c0,41.487-25.199,69.231-63.632,69.231c-19.091,0-34.107-7.636-44.034-21.38v19.853
			h-39.197V74.784h39.197v72.031c9.672-13.744,24.688-21.38,43.27-21.38C1207.544,125.435,1233.506,153.687,1233.506,195.939
			 M1193.799,194.667c0-21.89-13.744-37.671-33.853-37.671c-20.107,0-34.106,15.526-34.106,37.671
			c0,22.652,13.999,37.924,34.106,37.924C1180.055,232.591,1193.799,217.064,1193.799,194.667"/>
	</g>
	<g clip-path="url(#SVGID_2_)">
		<path fill="#0AA89E" d="M1394.615,195.176c0,41.742-29.525,69.995-73.304,69.995c-44.033,0-73.56-28.253-73.56-69.995
			c0-41.997,29.526-69.741,73.56-69.741C1365.09,125.435,1394.615,153.179,1394.615,195.176 M1286.95,195.685
			c0,22.398,13.999,37.67,34.361,37.67c20.107,0,34.106-15.271,34.106-37.67s-13.999-37.671-34.106-37.671
			C1300.949,158.014,1286.95,173.286,1286.95,195.685"/>
	</g>
	<g clip-path="url(#SVGID_2_)">
		<polygon fill="#0AA89E" points="1443.989,126.708 1469.188,168.195 1495.912,126.708 1538.673,126.708 1495.148,193.394 
			1541.728,263.644 1496.676,263.644 1469.188,218.848 1439.152,263.644 1395.884,263.644 1443.225,193.648 1399.191,126.708 		"/>
	</g>
</g>
<g>
	<path fill="#0AA89E" d="M515.246,325.331c8.042,0,9.023-0.654,9.873-6.146l2.877-0.261l0.262,0.326c0,0-0.981,4.315-1.438,8.893
		l-0.393,0.327c0,0-10.854-0.327-16.346-0.327c-4.25,0-7.912,0.523-7.912,0.523l0.327-2.746c3.204-0.393,4.12-1.373,4.12-4.315
		l0.065-20.727c0-2.224-0.392-2.746-1.961-2.746c-0.588,0-1.765,0.064-1.765,0.064l-0.131-0.261l0.392-2.485
		c0,0,4.643,0.131,8.042,0.131c8.304,0,12.685-0.196,16.15-0.588l0.196,0.327c0,0-0.915,4.054-1.242,8.761l-3.138,0.262
		c0,0,0.131-1.438,0.131-2.157c0-3.204-0.654-3.531-7.846-3.531c-3.27,0-3.465,0.131-3.531,1.896l-0.393,9.284
		c1.112,0,3.792,0.065,5.362,0.065c1.896,0,6.473-0.523,6.473-0.523l0.262,0.327l-0.785,3.4c0,0-4.511-0.131-7.323-0.131
		c-1.635,0-3.204,0.196-4.119,0.327c-0.196,4.969-0.196,7.322-0.196,8.957C511.258,325.004,511.584,325.331,515.246,325.331z"/>
	<path fill="#0AA89E" d="M560.822,311.731l-6.734-9.415c-1.831-2.616-4.054-3.793-7.192-4.25l-0.131-0.262l0.327-2.354
		c0,0,5.035,0.131,7.912,0.131c3.988,0,7.519-0.392,7.519-0.392l0.131,0.392l-0.196,2.158c-2.746,0.131-3.923,0.653-3.923,1.7
		c0,0.915,2.354,4.314,5.753,9.088c2.289-3.008,6.604-7.911,6.604-9.284c0-0.851-0.916-1.242-3.008-1.438l-0.131-0.196l0.327-2.354
		c0.327,0,4.119,0.326,6.211,0.326c2.223,0,5.427-0.196,5.427-0.196l0.196,0.393l-0.327,2.224c-3.269,0.784-4.446,1.961-7.257,5.361
		l-6.277,7.715l7.454,10.2c1.961,2.681,3.988,3.988,7.258,4.25l0.13,0.196l-0.392,2.55c0,0-4.315-0.131-6.734-0.131
		c-2.942,0-8.631,0.393-8.631,0.393l-0.196-0.393l0.196-2.288c2.681-0.131,3.923-0.589,3.923-1.7c0-0.589-0.392-1.177-1.046-2.093
		l-5.558-7.78l-4.577,5.754c-1.896,2.354-2.484,3.269-2.484,4.185c0,0.915,0.916,1.373,2.942,1.504l0.196,0.262l-0.393,2.484
		c0,0-4.185-0.327-6.146-0.327c-2.092,0-5.558,0.196-5.558,0.196l-0.196-0.393l0.327-2.419c3.007-0.851,5.427-3.335,8.5-6.931
		L560.822,311.731z"/>
	<path fill="#0AA89E" d="M599.468,295.45c0.327,0,4.054,0.131,6.146,0.131c1.569,0,7.127-0.196,7.127-0.196
		c8.042,0,11.834,3.728,11.834,9.285c0,5.885-5.95,11.312-12.423,11.312h-4.511l-0.065,4.576c0,4.381,0.262,4.97,2.354,4.97
		c1.046,0,2.812-0.131,2.812-0.131l0.13,0.262l-0.523,2.615c0,0-3.531-0.131-5.361-0.131c-2.877,0-8.173,0.262-8.238,0.393
		l0.392-2.681c3.008-0.523,3.792-1.308,3.792-4.185l0.065-20.792c0-2.158-0.458-2.746-1.896-2.746c-0.719,0-1.831,0.064-1.831,0.064
		l-0.196-0.261L599.468,295.45z M613.199,313.17c4.054-0.654,6.081-3.204,6.081-7.585c0-4.903-2.942-7.127-9.546-7.127
		c-1.177,0-1.308,0-1.373,0.785c-0.262,4.25-0.523,9.022-0.588,13.207L613.199,313.17z"/>
	<path fill="#0AA89E" d="M652.105,314.543l-0.131,6.996c0,3.596,0.392,4.054,3.857,4.119l0.131,0.196l-0.523,2.484
		c0-0.065-3.531-0.131-6.015-0.131c-2.877-0.065-6.539,0.196-6.539,0.196l0.458-2.681c3.204-0.393,3.989-1.111,3.989-4.054
		l0.065-20.857c0-2.158-0.458-2.681-1.896-2.681c-0.719,0-1.831,0.064-1.831,0.064l-0.196-0.261l0.393-2.485
		c0,0,4.119,0.131,6.146,0.131c1.961,0,6.996-0.196,6.996-0.196c7.062,0,11.311,3.073,11.311,8.239c0,4.054-2.812,7.584-7.715,9.742
		l5.558,8.369c2.092,3.138,3.727,4.315,6.473,4.315l0.262,0.326l-0.327,2.027l-5.034,0.522c-1.896,0-4.054-1.765-5.688-4.772
		l-5.492-9.611H652.105z M657.532,311.666c0.327-0.131,5.492-1.569,5.492-7.127c0-4.25-3.073-6.343-9.35-6.343
		c-0.719,0-0.915,0.262-0.915,1.178c-0.327,4.969-0.523,8.369-0.523,11.769L657.532,311.666z"/>
	<path fill="#0AA89E" d="M703.631,325.331c8.042,0,9.023-0.654,9.873-6.146l2.877-0.261l0.262,0.326c0,0-0.981,4.315-1.438,8.893
		l-0.393,0.327c0,0-10.854-0.327-16.346-0.327c-4.25,0-7.912,0.523-7.912,0.523l0.327-2.746c3.204-0.393,4.12-1.373,4.12-4.315
		l0.065-20.727c0-2.224-0.392-2.746-1.961-2.746c-0.588,0-1.765,0.064-1.765,0.064l-0.131-0.261l0.392-2.485
		c0,0,4.643,0.131,8.042,0.131c8.304,0,12.685-0.196,16.15-0.588l0.196,0.327c0,0-0.915,4.054-1.242,8.761l-3.138,0.262
		c0,0,0.131-1.438,0.131-2.157c0-3.204-0.654-3.531-7.846-3.531c-3.269,0-3.465,0.131-3.531,1.896l-0.393,9.284
		c1.112,0,3.792,0.065,5.362,0.065c1.896,0,6.473-0.523,6.473-0.523l0.262,0.327l-0.785,3.4c0,0-4.511-0.131-7.323-0.131
		c-1.635,0-3.204,0.196-4.119,0.327c-0.196,4.969-0.196,7.322-0.196,8.957C699.643,325.004,699.97,325.331,703.631,325.331z"/>
	<path fill="#0AA89E" d="M737.046,326.966l-0.327-0.589c0,0,0.719-4.119,0.719-8.826l2.942-0.262c0,6.8,1.242,8.304,6.669,8.304
		c4.185,0,6.996-1.962,6.996-5.035c0-3.203-3.988-4.903-8.042-6.865c-4.315-2.092-8.696-4.445-8.696-9.022
		c0-5.558,5.492-9.677,12.815-9.677c4.904,0,8.435,1.242,8.435,1.242l0.261,0.458c0,0-0.915,3.988-1.242,8.63l-2.55,0.262
		l-0.393-0.262c0,0,0.131-0.98,0.131-2.354c0-3.4-1.504-4.577-6.081-4.577c-3.662,0-6.342,1.896-6.342,4.512
		c0,2.877,3.465,4.643,7.258,6.473c4.577,2.158,9.807,4.512,9.807,9.351c0,5.885-5.558,10.004-13.665,10.004
		C740.577,328.731,737.046,326.966,737.046,326.966z"/>
	<path fill="#0AA89E" d="M780.072,326.966l-0.326-0.589c0,0,0.719-4.119,0.719-8.826l2.942-0.262c0,6.8,1.242,8.304,6.669,8.304
		c4.185,0,6.996-1.962,6.996-5.035c0-3.203-3.988-4.903-8.042-6.865c-4.315-2.092-8.696-4.445-8.696-9.022
		c0-5.558,5.492-9.677,12.815-9.677c4.903,0,8.435,1.242,8.435,1.242l0.262,0.458c0,0-0.916,3.988-1.242,8.63l-2.551,0.262
		l-0.392-0.262c0,0,0.131-0.98,0.131-2.354c0-3.4-1.504-4.577-6.081-4.577c-3.661,0-6.343,1.896-6.343,4.512
		c0,2.877,3.466,4.643,7.258,6.473c4.577,2.158,9.808,4.512,9.808,9.351c0,5.885-5.558,10.004-13.665,10.004
		C783.604,328.731,780.072,326.966,780.072,326.966z"/>
	<path fill="#0AA89E" d="M861.481,311.797h0.326l5.623-10.069c0.523-0.915,0.851-1.831,0.851-2.484c0-0.851-0.981-1.308-3.204-1.438
		l-0.131-0.196l0.327-2.354c0.393,0,4.185,0.326,6.276,0.326c2.158,0,5.101-0.196,5.101-0.196l0.196,0.393l-0.327,2.224
		c-3.531,0.784-4.185,2.092-6.931,6.604l-5.296,9.022c-1.047,1.831-1.047,3.531-1.112,8.5c-0.065,2.55,0.523,3.4,2.42,3.4
		c1.046,0,2.615-0.131,2.615-0.131l0.131,0.196l-0.523,2.746c0,0-4.839-0.196-7.323-0.196c-2.746,0-6.669,0.589-6.669,0.589
		l0.393-2.681c3.923-0.654,4.315-1.635,4.315-5.297v-2.026c0-1.896-0.262-3.204-1.569-5.623l-4.904-9.415
		c-2.026-3.858-2.615-5.166-6.604-5.623l-0.131-0.262l0.393-2.354c0,0,3.727,0.131,6.146,0.131c2.942,0,7.847-0.392,7.847-0.392
		l0.196,0.392l-0.196,2.158c-3.008,0.196-3.857,0.588-3.857,1.766C855.858,300.878,861.285,311.404,861.481,311.797z"/>
	<path fill="#0AA89E" d="M892.346,312.908c0-10.331,7.585-17.915,17.653-17.915c9.154,0,15.235,6.276,15.235,15.757
		c0,10.331-7.65,17.981-17.851,17.981C898.361,328.731,892.346,322.389,892.346,312.908z M919.611,313.039
		c0-8.762-4.577-14.385-11.377-14.385c-6.212,0-10.331,4.904-10.331,12.488c0,8.762,4.446,14.45,11.05,14.45
		C915.296,325.593,919.611,320.623,919.611,313.039z"/>
	<path fill="#0AA89E" d="M960.414,325.331c5.492,0,8.369-2.812,8.369-8.042c0-3.466-0.262-16.411-0.262-16.411
		c-0.131-2.289-0.392-2.746-1.896-2.746c-0.654,0-2.224,0.064-2.224,0.064l-0.065-0.195l0.393-2.551c0,0,4.054,0.131,6.081,0.131
		c2.419,0,5.492-0.392,5.492-0.392l-0.196,2.615c-3.008,0.457-3.597,0.85-3.597,2.812v16.738c0,7.258-4.838,11.377-13.403,11.377
		c-7.715,0-11.899-3.924-11.899-11.181v-16.673c0-2.224-0.393-2.746-1.962-2.746c-0.589,0-1.766,0.064-1.766,0.064l-0.131-0.195
		l0.393-2.551c0,0,4.185,0.131,6.473,0.131c2.289,0,5.819-0.392,5.819-0.392l-0.262,2.615c-2.55,0.327-3.203,0.98-3.334,2.877
		l-0.393,14.973C952.045,321.801,954.987,325.331,960.414,325.331z"/>
	<path fill="#0AA89E" d="M1004.356,314.543l-0.131,6.996c0,3.596,0.393,4.054,3.857,4.119l0.131,0.196l-0.523,2.484
		c0-0.065-3.53-0.131-6.015-0.131c-2.877-0.065-6.539,0.196-6.539,0.196l0.458-2.681c3.204-0.393,3.988-1.111,3.988-4.054
		l0.065-20.857c0-2.158-0.457-2.681-1.896-2.681c-0.72,0-1.831,0.064-1.831,0.064l-0.196-0.261l0.393-2.485
		c0,0,4.119,0.131,6.146,0.131c1.962,0,6.996-0.196,6.996-0.196c7.062,0,11.312,3.073,11.312,8.239c0,4.054-2.812,7.584-7.715,9.742
		l5.558,8.369c2.092,3.138,3.727,4.315,6.473,4.315l0.262,0.326l-0.327,2.027l-5.034,0.522c-1.896,0-4.054-1.765-5.688-4.772
		l-5.492-9.611H1004.356z M1009.783,311.666c0.327-0.131,5.492-1.569,5.492-7.127c0-4.25-3.073-6.343-9.35-6.343
		c-0.72,0-0.916,0.262-0.916,1.178c-0.326,4.969-0.522,8.369-0.522,11.769L1009.783,311.666z"/>
	<path fill="#0AA89E" d="M1070.072,295.45c0.327,0,4.054,0.131,6.146,0.131c1.569,0,7.127-0.196,7.127-0.196
		c8.042,0,11.835,3.728,11.835,9.285c0,5.885-5.95,11.312-12.423,11.312h-4.512l-0.065,4.576c0,4.381,0.262,4.97,2.354,4.97
		c1.047,0,2.812-0.131,2.812-0.131l0.131,0.262l-0.522,2.615c0,0-3.531-0.131-5.362-0.131c-2.877,0-8.173,0.262-8.238,0.393
		l0.393-2.681c3.008-0.523,3.792-1.308,3.792-4.185l0.065-20.792c0-2.158-0.457-2.746-1.896-2.746c-0.72,0-1.831,0.064-1.831,0.064
		l-0.196-0.261L1070.072,295.45z M1083.803,313.17c4.054-0.654,6.081-3.204,6.081-7.585c0-4.903-2.942-7.127-9.547-7.127
		c-1.177,0-1.308,0-1.373,0.785c-0.261,4.25-0.522,9.022-0.588,13.207L1083.803,313.17z"/>
	<path fill="#0AA89E" d="M1142.782,325.658l0.131,0.262l-0.326,2.354c0,0-3.989-0.131-5.95-0.131c-4.25,0-8.238,0.458-8.238,0.458
		l-0.196-0.327l0.196-2.354c3.661-0.262,4.642-0.654,4.642-1.896c0-0.589-0.13-1.373-0.457-2.223l-1.569-5.035
		c-1.308-0.065-3.988-0.065-5.427-0.065c-1.962,0-4.381,0.262-5.623,0.393l-1.831,4.838c-0.262,0.851-0.458,1.438-0.458,1.831
		c0,1.438,0.916,1.962,3.073,1.962h2.812l0.196,0.262l-0.393,2.484c0,0-3.988-0.327-7.519-0.327c-2.681,0-6.016,0.131-6.016,0.131
		l0.393-2.681c1.896-0.262,2.877-1.111,3.988-3.792l10.266-25.958l4.642-0.85l0.458,0.065c0,0,4.577,16.477,8.304,27.003
		C1138.729,324.547,1139.841,325.396,1142.782,325.658z M1121.01,314.02h4.446c1.373,0,3.53-0.131,4.772-0.262l-3.988-12.685h-0.457
		L1121.01,314.02z"/>
	<path fill="#0AA89E" d="M1159.851,326.966l-0.326-0.589c0,0,0.719-4.119,0.719-8.826l2.942-0.262c0,6.8,1.242,8.304,6.669,8.304
		c4.185,0,6.996-1.962,6.996-5.035c0-3.203-3.988-4.903-8.042-6.865c-4.315-2.092-8.696-4.445-8.696-9.022
		c0-5.558,5.492-9.677,12.815-9.677c4.903,0,8.435,1.242,8.435,1.242l0.262,0.458c0,0-0.916,3.988-1.242,8.63l-2.551,0.262
		l-0.392-0.262c0,0,0.131-0.98,0.131-2.354c0-3.4-1.504-4.577-6.081-4.577c-3.661,0-6.343,1.896-6.343,4.512
		c0,2.877,3.466,4.643,7.258,6.473c4.577,2.158,9.808,4.512,9.808,9.351c0,5.885-5.558,10.004-13.665,10.004
		C1163.382,328.731,1159.851,326.966,1159.851,326.966z"/>
	<path fill="#0AA89E" d="M1202.877,326.966l-0.326-0.589c0,0,0.719-4.119,0.719-8.826l2.942-0.262c0,6.8,1.242,8.304,6.669,8.304
		c4.185,0,6.996-1.962,6.996-5.035c0-3.203-3.988-4.903-8.042-6.865c-4.315-2.092-8.696-4.445-8.696-9.022
		c0-5.558,5.492-9.677,12.815-9.677c4.903,0,8.435,1.242,8.435,1.242l0.262,0.458c0,0-0.916,3.988-1.242,8.63l-2.551,0.262
		l-0.392-0.262c0,0,0.131-0.98,0.131-2.354c0-3.4-1.504-4.577-6.081-4.577c-3.661,0-6.343,1.896-6.343,4.512
		c0,2.877,3.466,4.643,7.258,6.473c4.577,2.158,9.808,4.512,9.808,9.351c0,5.885-5.558,10.004-13.665,10.004
		C1206.408,328.731,1202.877,326.966,1202.877,326.966z"/>
	<path fill="#0AA89E" d="M1254.796,322.062c0,2.812,0.458,3.531,2.288,3.531c1.242,0,2.681-0.196,2.681-0.196l0.131,0.262
		l-0.457,2.615c0,0-4.773-0.131-7.258-0.131c-2.812,0-6.538,0.589-6.538,0.589l0.326-2.681c3.335-0.589,4.185-1.504,4.185-4.381
		l0.065-20.792c0-2.158-0.392-2.746-1.961-2.746c-0.785,0-2.158,0.064-2.158,0.064l-0.131-0.261l0.327-2.485
		c0.393,0,4.381,0.131,6.669,0.131c2.42,0,6.539-0.457,6.539-0.457l-0.262,2.681c-2.942,0.327-3.597,0.915-3.728,2.877
		C1255.123,307.678,1254.796,317.485,1254.796,322.062z"/>
	<path fill="#0AA89E" d="M1278.794,312.908c0-10.331,7.585-17.915,17.653-17.915c9.154,0,15.234,6.276,15.234,15.757
		c0,10.331-7.649,17.981-17.85,17.981C1284.81,328.731,1278.794,322.389,1278.794,312.908z M1306.06,313.039
		c0-8.762-4.577-14.385-11.377-14.385c-6.212,0-10.331,4.904-10.331,12.488c0,8.762,4.446,14.45,11.05,14.45
		C1301.744,325.593,1306.06,320.623,1306.06,313.039z"/>
	<path fill="#0AA89E" d="M1357.65,319.25l-0.065-18.896c0-1.504-0.588-2.158-1.765-2.158h-1.962l-0.131-0.261l0.458-2.551
		c0,0,3.596,0.196,5.558,0.196c2.288,0,5.558-0.392,5.558-0.392l-0.262,2.681c-2.484,0.326-3.53,1.242-3.596,3.269l-0.785,28.115
		l-2.55,0.72c-9.938-14.581-18.896-26.35-18.896-26.35h-0.327l-0.196,19.811c0,1.635,0.458,2.158,1.7,2.158
		c0.588,0,2.615-0.065,2.615-0.065l0.196,0.196l-0.523,2.615c0,0-3.661-0.196-5.95-0.196c-2.354,0-5.427,0.393-5.427,0.393
		l0.327-2.681c2.157-0.262,3.204-1.112,3.27-3.204l0.719-21.577c0-2.157-1.046-2.812-4.577-3.203l-0.261-0.327l0.457-2.223
		c0,0,3.204,0.261,4.97,0.261c1.896,0,3.988-0.196,3.988-0.196c8.435,12.424,17.131,23.865,17.131,23.865H1357.65z"/>
</g>
<g>
	<defs>
		<rect id="SVGID_3_" x="-725" y="-819" width="3000" height="2000"/>
	</defs>
	<clipPath id="SVGID_4_">
		<use xlink:href="#SVGID_3_"  overflow="visible"/>
	</clipPath>
	<g clip-path="url(#SVGID_4_)">
		<path fill="#0AA89E" d="M66.732,211.288H26.787c0-1.666-0.269-71.952-0.415-77.45c3.571-0.42,6.638-0.577,9.594-1.235
			c1.093-0.243,2.381-1.503,2.76-2.586c0.506-1.447,0.259-3.173,0.257-4.78c-0.038-36.43-0.087-72.86-0.133-109.291
			c-0.002-1.865,0-3.73,0-5.852H281.4c0,4.842,0.001,9.466,0,14.09c-0.002,34.968-0.004,69.936-0.009,104.905
			c-0.001,6.859-0.01,6.849,6.836,6.972c1.133,0.021,2.263,0.17,3.742,0.287v77.49c-4.455,0-8.63,0.002-12.805,0
			c-7.9-0.005-15.802-0.095-23.701,0.03c-2.604,0.041-3.646-0.733-3.638-3.456c0.067-23.702,0.074-47.405-0.016-71.107
			c-0.011-2.922,1.321-3.357,3.761-3.286c9.376,0.271,8.386,0.38,8.389-8.575c0.01-31.603-0.072-63.207,0.088-94.809
			c0.023-4.381-1.2-5.747-5.69-5.737c-65.546,0.135-131.094,0.098-196.641,0.071c-2.966-0.001-5.413-0.171-5.396,4.15
			c0.123,33.212,0.069,66.424,0.082,99.636c0.001,0.716,0.147,1.432,0.312,2.946c2.71,0,5.416,0.123,8.106-0.031
			c3.395-0.195,4.146,1.128,3.065,4.23c-0.653,1.876-1.153,47.461-1.153,68.236V211.288z"/>
	</g>
	<g clip-path="url(#SVGID_4_)">
		<path fill="#0AA89E" d="M83.483,344.75c-6.635,2.946-13.329,5.569-20.614,6.653c-19.905,2.96-41.865-7.425-50.432-24.101
			c-8.532-16.607-3.683-36.082,12.064-47.649c12.545-9.214,26.594-12.119,41.864-9.31c0.62,0.115,1.246,0.204,1.865,0.322
			c3.629,0.691,3.719,0.647,3.721-3.105c0.013-29.569,0.014-59.138,0.016-88.707c0.002-22.835-0.002-45.669,0.003-68.504
			c0.001-4.626,0.121-4.66,4.636-5.243c25.329-3.272,50.651-6.599,75.979-9.876c21.995-2.845,43.997-5.637,65.993-8.473
			c8.548-1.103,17.091-2.248,25.632-3.402c3.623-0.49,4.009-0.23,4.01,3.529c0.014,37.04-0.605,179.267-0.365,196.731
			c0.226,16.366-7.629,27.813-21.134,35.855c-19.394,11.55-46.747,8.629-63.144-7.444c-13.914-13.64-15.206-36.69-1.875-51.219
			c13.151-14.333,29.642-18.747,48.469-15.744c5.67,0.904,5.79,2.337,5.785-4.794c-0.018-28.096-0.007-56.192-0.009-84.288
			c-0.001-4.407-0.01-4.42-4.282-3.793c-34.529,5.075-69.057,10.155-103.585,15.237c-4.275,0.629-4.277,0.637-4.277,5.134
			c0.001,45.459-0.134,90.918,0.091,136.375c0.065,13.034-5.151,23.121-14.708,31.408c-0.788,0.683-1.752,1.204-2.024,2.331
			C85.426,342.463,84.369,343.455,83.483,344.75"/>
	</g>
</g>
</svg>
