<?xml version="1.0" encoding="utf-8"?>
<!-- Generator: Adobe Illustrator 16.0.0, SVG Export Plug-In . SVG Version: 6.00 Build 0)  -->
<!DOCTYPE svg PUBLIC "-//W3C//DTD SVG 1.1//EN" "http://www.w3.org/Graphics/SVG/1.1/DTD/svg11.dtd">
<svg version="1.1" id="Layer_1" xmlns="http://www.w3.org/2000/svg" xmlns:xlink="http://www.w3.org/1999/xlink" x="0px" y="0px"
	 width="180px" height="180px" viewBox="0 0 180 180" enable-background="new 0 0 180 180" xml:space="preserve">
<path fill="#00B0A2" d="M126.633,86.799c10.359-10.117,10.229-28.748-10.32-41.666C91.607,29.601,87.924,5.793,87.92,5.635
	l-0.008-0.273l-7.946,0.224l4.062,123.426c-5.795-5.212-14.171-8.376-23.407-8.116c-17.002,0.479-30.459,12.357-30.06,26.53
	c0.398,14.172,14.495,24.999,31.497,24.521c16.849-0.475,30.24-11.312,30.052-26.434l-0.252,0.008l0.006,0.219
	c0-0.013,0-0.026,0-0.04c-0.002-0.016-0.002-0.033-0.002-0.051l-1.367-47.041c4.152,6.039,11.383,13.107,24.037,22.029
	c25.594,18.046,8.219,38.047,8.219,38.047c13.148-6.824,17.717-23.861,4.82-38.024C135.982,112.446,137.402,98.625,126.633,86.799
	 M112.691,52.913c16.773,11.828,15.076,24.494,11.916,31.819c-2.111-1.996-4.586-3.922-7.467-5.734
	C94.977,65.064,89.65,44.481,88.77,40.277l-0.31-9.787C92.568,36.615,99.76,43.797,112.691,52.913 M125.561,118.593
	c-2.111-1.997-4.586-3.923-7.469-5.734c-21.178-13.315-26.98-32.702-28.223-38.068l-0.326-10.244
	c4.131,6.082,11.309,13.208,24.102,22.228C130.418,98.602,128.721,111.267,125.561,118.593"/>
</svg>
